<?xml version="1.0" encoding="UTF-8" standalone="no"?>
<!-- Created with Inkscape (http://www.inkscape.org/) -->

<svg
   width="64"
   height="64"
   id="svg2869"
   version="1.1"
   viewBox="0 0 64 64"
   xmlns:xlink="http://www.w3.org/1999/xlink"
   xmlns="http://www.w3.org/2000/svg"
   xmlns:svg="http://www.w3.org/2000/svg"
   xmlns:rdf="http://www.w3.org/1999/02/22-rdf-syntax-ns#"
   xmlns:cc="http://creativecommons.org/ns#"
   xmlns:dc="http://purl.org/dc/elements/1.1/">
  <defs
     id="defs2871">
    <linearGradient
       id="linearGradient35">
      <stop
         style="stop-color:#fce94f;stop-opacity:1"
         offset="0"
         id="stop35" />
      <stop
         style="stop-color:#edd400;stop-opacity:1"
         offset="1"
         id="stop36" />
    </linearGradient>
    <linearGradient
       id="linearGradient5">
      <stop
         style="stop-color:#ef2929;stop-opacity:1;"
         offset="0"
         id="stop19" />
      <stop
         style="stop-color:#ef2929;stop-opacity:0;"
         offset="1"
         id="stop20" />
    </linearGradient>
    <linearGradient
       id="swatch18">
      <stop
         style="stop-color:#ef2929;stop-opacity:1;"
         offset="0"
         id="stop18" />
    </linearGradient>
    <linearGradient
       id="swatch15">
      <stop
         style="stop-color:#3d0000;stop-opacity:1;"
         offset="0"
         id="stop15" />
    </linearGradient>
    <linearGradient
       id="linearGradient5-1">
      <stop
         style="stop-color:#ef2929;stop-opacity:1;"
         offset="0"
         id="stop5" />
      <stop
         style="stop-color:#ef2929;stop-opacity:0;"
         offset="1"
         id="stop6" />
    </linearGradient>
    <linearGradient
       id="linearGradient3836-9">
      <stop
         style="stop-color:#a40000;stop-opacity:1"
         offset="0"
         id="stop3838-8" />
      <stop
         style="stop-color:#ef2929;stop-opacity:1"
         offset="1"
         id="stop3840-1" />
    </linearGradient>
    <linearGradient
       xlink:href="#linearGradient35"
       id="linearGradient36"
       x1="21.182322"
       y1="15.756846"
       x2="45.504631"
       y2="42.270351"
       gradientUnits="userSpaceOnUse" />
  </defs>
  <metadata
     id="metadata2874">
    <rdf:RDF>
      <cc:Work
         rdf:about="">
        <dc:format>image/svg+xml</dc:format>
        <dc:type
           rdf:resource="http://purl.org/dc/dcmitype/StillImage" />
        <dc:creator>
          <cc:Agent>
            <dc:title>[maxwxyz]</dc:title>
          </cc:Agent>
        </dc:creator>
        <dc:relation>https://www.freecad.org/wiki/index.php?title=Artwork</dc:relation>
        <dc:publisher>
          <cc:Agent>
            <dc:title>FreeCAD</dc:title>
          </cc:Agent>
        </dc:publisher>
        <dc:identifier>FreeCAD/src/</dc:identifier>
        <dc:rights>
          <cc:Agent>
            <dc:title>FreeCAD LGPL2+</dc:title>
          </cc:Agent>
        </dc:rights>
        <dc:date>2024</dc:date>
      </cc:Work>
    </rdf:RDF>
  </metadata>
  <g
     id="layer3"
     style="display:inline">
    <path
       d="M 50.678512,5.8152538 C 24.482428,14.345884 16.736338,21.01986 7.2481204,38.29986 c 2.5159877,4.261494 4.4221696,6.242875 8.0344226,9.771251 0,0 0,0 0,0 0.248759,0.242983 0.437373,0.434789 0.703773,0.694278 4.427393,4.217009 9.002638,6.914937 14.710754,8.650895 1.585856,0.541872 3.392848,0.87855 5.238353,1.074704 0,0 0,0 0,0 4.20899,0.447363 8.621662,0.157528 11.087275,-0.15217 -0.239164,-10.884915 4.019779,-24.401239 9.651198,-26.753483 -1.344614,-4.71966 -2.688789,-9.439936 -3.68815,-13.735294 -0.99936,-4.295358 -1.653435,-8.1639974 -2.307234,-12.0347872 z"
       style="fill:#fce94f;fill-rule:evenodd;stroke:none;stroke-width:2;stroke-linecap:round;stroke-linejoin:round"
       id="path34" />
    <path
       d="m 47.539062,11.085938 c 0.440716,2.452593 0.921767,4.966349 1.550782,7.669921 0.824117,3.542144 1.882539,7.351238 2.960937,11.16211 -5.336276,4.859091 -8.414666,15.474016 -8.943359,24.726562 -2.041067,0.103232 -4.409567,0.115946 -6.75,-0.132812 -1.666304,-0.177107 -3.13194,-0.458787 -4.367188,-0.88086 l -0.06445,-0.02148 -0.06445,-0.01953 C 26.835362,52.061342 22.719827,49.647029 18.777344,45.900391 l -0.01367,-0.01367 c -0.0065,-0.0061 -0.01308,-0.01143 -0.01953,-0.01758 -0.231528,-0.22634 -0.4115,-0.41155 -0.666016,-0.660157 C 15.18036,42.378506 13.6022,40.74756 11.902344,38.191406 19.849759,24.242834 26.646613,18.308319 47.539062,11.085938 Z"
       style="fill:url(#linearGradient36);fill-rule:evenodd;stroke:#fce94f;stroke-width:2;stroke-linecap:round;stroke-linejoin:round"
       id="path35" />
    <path
       id="path10"
       d="M 7.2482171,38.299326 C 16.736444,21.019309 24.482053,14.345044 50.678164,5.8144056"
       style="fill:none;fill-rule:evenodd;stroke:#17220c;stroke-width:6;stroke-linecap:round;stroke-linejoin:round;stroke-dasharray:none;stroke-opacity:1" />
    <path
       id="path11"
       d="M 56.673807,31.585923 C 51.042383,33.93817 46.783543,47.453141 47.022707,58.338067 43.476,58.783558 35.900341,59.194646 30.697665,57.416942 24.989544,55.680982 20.413021,52.983081 15.985624,48.766067 11.850793,44.738503 9.9374717,42.854293 7.2482171,38.299326"
       style="fill:none;fill-rule:evenodd;stroke:#17220c;stroke-width:6;stroke-linecap:round;stroke-linejoin:round;stroke-dasharray:none;stroke-opacity:1" />
    <path
       style="fill:none;stroke:#17220c;stroke-width:6.55399;stroke-linecap:round;stroke-linejoin:round;stroke-miterlimit:4;stroke-dasharray:none;stroke-opacity:1"
       d="M 58.866296,33.325301 C 57.397513,28.16992 55.928421,23.013453 54.836775,18.321546 53.745129,13.629638 53.031163,9.4027174 52.31699,5.1745749"
       id="path12"
       transform="matrix(0.91546253,0,0,0.91548322,2.7839188,1.077169)" />
    <path
       id="path13"
       d="M 15.281075,48.077557 C 24.769302,30.79754 25.83086,21.903029 52.026969,13.37239"
       style="fill:none;fill-rule:evenodd;stroke:#17220c;stroke-width:3;stroke-linecap:round;stroke-linejoin:round;stroke-miterlimit:4;stroke-dasharray:none;stroke-opacity:1" />
    <path
       id="path14"
       d="M 25.336792,55.00487 C 29.739966,42.12411 34.434446,24.25623 53.627624,20.492401"
       style="fill:none;fill-rule:evenodd;stroke:#17220c;stroke-width:3;stroke-linecap:round;stroke-linejoin:round;stroke-miterlimit:4;stroke-dasharray:none;stroke-opacity:1" />
    <path
       id="path15"
       d="M 35.921146,58.570453 C 38.607808,45.609681 40.657048,30.067126 55.088119,25.97025"
       style="fill:none;fill-rule:evenodd;stroke:#17220c;stroke-width:3;stroke-linecap:round;stroke-linejoin:round;stroke-miterlimit:4;stroke-dasharray:none;stroke-opacity:1" />
    <path
       id="path76"
       d="M 7.2482171,38.299326 C 16.736444,21.019309 24.482053,14.345044 50.678164,5.8144056"
       style="fill:none;fill-rule:evenodd;stroke:#72d016;stroke-width:2;stroke-linecap:round;stroke-linejoin:round;stroke-dasharray:none;stroke-opacity:1" />
    <path
       id="path76-1"
       d="M 56.673807,31.585923 C 51.042383,33.93817 46.783543,47.453141 47.022707,58.338067 43.476,58.783558 35.900341,59.194646 30.697665,57.416942 24.989544,55.680982 20.413021,52.983081 15.985624,48.766067 11.850793,44.738503 9.9374717,42.854293 7.2482171,38.299326"
       style="fill:none;fill-rule:evenodd;stroke:#72d016;stroke-width:2;stroke-linecap:round;stroke-linejoin:round;stroke-dasharray:none;stroke-opacity:1" />
    <path
       style="fill:none;stroke:#72d016;stroke-width:2.18466;stroke-linecap:round;stroke-linejoin:round;stroke-miterlimit:4;stroke-dasharray:none;stroke-opacity:1"
       d="M 58.866296,33.325301 C 57.397513,28.16992 55.928421,23.013453 54.836775,18.321546 53.745129,13.629638 53.031163,9.4027174 52.31699,5.1745749"
       id="path874"
       transform="matrix(0.91546253,0,0,0.91548322,2.7839188,1.077169)" />
    <path
       id="path76-4"
       d="M 15.281075,48.077557 C 24.769302,30.79754 25.83086,21.903029 52.026969,13.37239"
       style="fill:none;fill-rule:evenodd;stroke:#72d016;stroke-width:1;stroke-linecap:round;stroke-linejoin:round;stroke-miterlimit:4;stroke-dasharray:none;stroke-opacity:1" />
    <path
       id="path76-4-0"
       d="M 25.336792,55.00487 C 29.739966,42.12411 34.434446,24.25623 53.627624,20.492401"
       style="fill:none;fill-rule:evenodd;stroke:#72d016;stroke-width:1;stroke-linecap:round;stroke-linejoin:round;stroke-miterlimit:4;stroke-dasharray:none;stroke-opacity:1" />
    <path
       id="path76-4-0-8"
       d="M 35.921146,58.570453 C 38.607808,45.609681 40.657048,30.067126 55.088119,25.97025"
       style="fill:none;fill-rule:evenodd;stroke:#72d016;stroke-width:1;stroke-linecap:round;stroke-linejoin:round;stroke-miterlimit:4;stroke-dasharray:none;stroke-opacity:1" />
    <ellipse
       cy="5.6619329"
       cx="50.00301"
       id="circle44"
       style="fill:#ff0000;fill-opacity:1;stroke:#230b0b;stroke-width:2;stroke-linejoin:round;stroke-miterlimit:4;stroke-dasharray:none;stroke-opacity:1"
       rx="3.66185"
       ry="3.6619329" />
    <ellipse
       cy="31.836763"
       cx="57.55423"
       id="circle46"
       style="fill:#ef2929;fill-opacity:1;stroke:#230b0b;stroke-width:2;stroke-linejoin:round;stroke-miterlimit:4;stroke-dasharray:none;stroke-opacity:1"
       rx="3.66185"
       ry="3.6619329" />
    <ellipse
       cy="58.338066"
       cx="47.022705"
       id="circle42"
       style="fill:#ff0000;fill-opacity:1;stroke:#230b0b;stroke-width:2;stroke-linejoin:round;stroke-miterlimit:4;stroke-dasharray:none;stroke-opacity:1"
       rx="3.66185"
       ry="3.6619329" />
    <ellipse
       cy="38.73996"
       cx="6.4457684"
       id="circle40"
       style="fill:#ff0000;fill-opacity:1;stroke:#230b0b;stroke-width:2;stroke-linejoin:round;stroke-miterlimit:4;stroke-dasharray:none;stroke-opacity:1"
       rx="3.66185"
       ry="3.6619329" />
    <path
       id="circle1"
       style="fill:#cc0000;fill-opacity:1;stroke:#ef2929;stroke-width:2.05364;stroke-linejoin:round;stroke-miterlimit:4;stroke-dasharray:none;stroke-opacity:1"
       d="m 50.486328,3.2480469 c 0.932318,0 1.707031,0.7747129 1.707031,1.7070312 0,0.9323184 -0.77604,1.7089844 -1.707031,1.7089844 -0.93099,0 -1.707031,-0.776666 -1.707031,-1.7089844 0,-0.9323183 0.774713,-1.7070312 1.707031,-1.7070312 z"
       transform="matrix(0.97386944,0,0,0.97389145,0.83617927,0.83547302)" />
    <path
       id="path4"
       style="fill:#cc0000;fill-opacity:1;stroke:#ef2929;stroke-width:2.05364;stroke-linejoin:round;stroke-miterlimit:4;stroke-dasharray:none;stroke-opacity:1"
       transform="matrix(0.97386944,0,0,0.97389145,8.3871409,27.010104)"
       d="m 50.486328,3.2480469 c 0.932318,0 1.707031,0.7747129 1.707031,1.7070312 0,0.9323184 -0.77604,1.7089844 -1.707031,1.7089844 -0.93099,0 -1.707031,-0.776666 -1.707031,-1.7089844 0,-0.9323183 0.774713,-1.7070312 1.707031,-1.7070312 z" />
    <path
       id="path6"
       style="fill:#cc0000;fill-opacity:1;stroke:#ef2929;stroke-width:2.05364;stroke-linejoin:round;stroke-miterlimit:4;stroke-dasharray:none;stroke-opacity:1"
       transform="matrix(0.97386944,0,0,0.97389145,-2.1441263,53.511608)"
       d="m 50.486328,3.2480469 c 0.932318,0 1.707031,0.7747129 1.707031,1.7070312 0,0.9323184 -0.77604,1.7089844 -1.707031,1.7089844 -0.93099,0 -1.707031,-0.776666 -1.707031,-1.7089844 0,-0.9323183 0.774713,-1.7070312 1.707031,-1.7070312 z" />
    <path
       id="path8"
       style="fill:#cc0000;fill-opacity:1;stroke:#ef2929;stroke-width:2.05364;stroke-linejoin:round;stroke-miterlimit:4;stroke-dasharray:none;stroke-opacity:1"
       d="m 50.486328,3.2480469 c 0.932318,0 1.707031,0.7747129 1.707031,1.7070312 0,0.9323184 -0.77604,1.7089844 -1.707031,1.7089844 -0.93099,0 -1.707031,-0.776666 -1.707031,-1.7089844 0,-0.9323183 0.774713,-1.7070312 1.707031,-1.7070312 z"
       transform="matrix(0.97386944,0,0,0.97389145,-42.721064,33.913502)" />
  </g>
</svg>
