<?xml version="1.0" encoding="UTF-8" standalone="no"?>
<!-- Created with Inkscape (http://www.inkscape.org/) -->

<svg
   width="64"
   height="64"
   id="svg2869"
   version="1.1"
   viewBox="0 0 64 64"
   xmlns:xlink="http://www.w3.org/1999/xlink"
   xmlns="http://www.w3.org/2000/svg"
   xmlns:svg="http://www.w3.org/2000/svg"
   xmlns:rdf="http://www.w3.org/1999/02/22-rdf-syntax-ns#"
   xmlns:cc="http://creativecommons.org/ns#"
   xmlns:dc="http://purl.org/dc/elements/1.1/">
  <defs
     id="defs2871">
    <linearGradient
       id="linearGradient5">
      <stop
         style="stop-color:#ef2929;stop-opacity:1;"
         offset="0"
         id="stop19" />
      <stop
         style="stop-color:#ef2929;stop-opacity:0;"
         offset="1"
         id="stop20" />
    </linearGradient>
    <linearGradient
       id="swatch18">
      <stop
         style="stop-color:#ef2929;stop-opacity:1;"
         offset="0"
         id="stop18" />
    </linearGradient>
    <linearGradient
       id="swatch15">
      <stop
         style="stop-color:#3d0000;stop-opacity:1;"
         offset="0"
         id="stop15" />
    </linearGradient>
    <linearGradient
       id="linearGradient5-1">
      <stop
         style="stop-color:#ef2929;stop-opacity:1;"
         offset="0"
         id="stop5" />
      <stop
         style="stop-color:#ef2929;stop-opacity:0;"
         offset="1"
         id="stop6" />
    </linearGradient>
    <linearGradient
       id="linearGradient3836-9">
      <stop
         style="stop-color:#a40000;stop-opacity:1"
         offset="0"
         id="stop3838-8" />
      <stop
         style="stop-color:#ef2929;stop-opacity:1"
         offset="1"
         id="stop3840-1" />
    </linearGradient>
    <linearGradient
       xlink:href="#linearGradient3774"
       id="linearGradient2999"
       gradientUnits="userSpaceOnUse"
       x1="30"
       y1="-2"
       x2="26"
       y2="-26"
       gradientTransform="matrix(0.64048746,0,0,0.64048746,26.069399,58.014604)" />
    <linearGradient
       id="linearGradient3774">
      <stop
         style="stop-color:#4e9a06;stop-opacity:1"
         offset="0"
         id="stop3776" />
      <stop
         style="stop-color:#8ae234;stop-opacity:1"
         offset="1"
         id="stop3778" />
    </linearGradient>
    <linearGradient
       xlink:href="#linearGradient3799"
       id="linearGradient3805"
       x1="444.65356"
       y1="117.0061"
       x2="429.38779"
       y2="86.006104"
       gradientUnits="userSpaceOnUse"
       gradientTransform="matrix(0.6771763,0,0,0.68917417,-275.31141,-36.921621)" />
    <linearGradient
       id="linearGradient3799">
      <stop
         style="stop-color:#204a87;stop-opacity:1;"
         offset="0"
         id="stop3801" />
      <stop
         style="stop-color:#3465a4;stop-opacity:1"
         offset="1"
         id="stop3803" />
    </linearGradient>
    <linearGradient
       xlink:href="#linearGradient3791"
       id="linearGradient3797"
       x1="448.72443"
       y1="115.0061"
       x2="434.47638"
       y2="78.006104"
       gradientUnits="userSpaceOnUse"
       gradientTransform="matrix(0.6771763,0,0,0.68917417,-275.31141,-36.921621)" />
    <linearGradient
       id="linearGradient3791">
      <stop
         style="stop-color:#3465a4;stop-opacity:1;"
         offset="0"
         id="stop3793" />
      <stop
         style="stop-color:#729fcf;stop-opacity:1"
         offset="1"
         id="stop3795" />
    </linearGradient>
  </defs>
  <metadata
     id="metadata2874">
    <rdf:RDF>
      <cc:Work
         rdf:about="">
        <dc:format>image/svg+xml</dc:format>
        <dc:type
           rdf:resource="http://purl.org/dc/dcmitype/StillImage" />
        <dc:creator>
          <cc:Agent>
            <dc:title>[maxwxyz]</dc:title>
          </cc:Agent>
        </dc:creator>
        <dc:relation>https://www.freecad.org/wiki/index.php?title=Artwork</dc:relation>
        <dc:publisher>
          <cc:Agent>
            <dc:title>FreeCAD</dc:title>
          </cc:Agent>
        </dc:publisher>
        <dc:identifier>FreeCAD/src/</dc:identifier>
        <dc:rights>
          <cc:Agent>
            <dc:title>FreeCAD LGPL2+</dc:title>
          </cc:Agent>
        </dc:rights>
        <dc:date>2024</dc:date>
      </cc:Work>
    </rdf:RDF>
  </metadata>
  <g
     id="layer3"
     style="display:inline">
    <g
       id="layer3-5"
       style="display:inline">
      <g
         id="g38"
         transform="matrix(0.71827201,0,0,0.71827201,-0.2679048,0.598218)"
         style="stroke-width:1.39223">
        <path
           d="M 50.678512,5.8152538 C 24.482428,14.345884 16.736338,21.01986 7.2481204,38.29986 c 2.5159877,4.261494 4.4221696,6.242875 8.0344226,9.771251 0,0 0,0 0,0 0.248759,0.242983 0.437373,0.434789 0.703773,0.694278 4.427393,4.217009 9.002638,6.914937 14.710754,8.650895 1.585856,0.541872 3.392848,0.87855 5.238353,1.074704 0,0 0,0 0,0 4.20899,0.447363 8.621662,0.157528 11.087275,-0.15217 -0.239164,-10.884915 4.019779,-24.401239 9.651198,-26.753483 -1.344614,-4.71966 -2.688789,-9.439936 -3.68815,-13.735294 -0.99936,-4.295358 -1.653435,-8.1639974 -2.307234,-12.0347872 z"
           style="fill:#fce94f;fill-rule:evenodd;stroke:none;stroke-width:2.78446;stroke-linecap:round;stroke-linejoin:round"
           id="path34" />
        <path
           id="path10"
           d="M 7.2482171,38.299326 C 16.736444,21.019309 24.482053,14.345044 50.678164,5.8144056"
           style="fill:none;fill-rule:evenodd;stroke:#17220c;stroke-width:6.26504;stroke-linecap:round;stroke-linejoin:round;stroke-dasharray:none;stroke-opacity:1" />
        <path
           id="path11"
           d="M 56.673807,31.585923 C 51.042383,33.93817 46.783543,47.453141 47.022707,58.338067 43.476,58.783558 35.900341,59.194646 30.697665,57.416942 24.989544,55.680982 20.413021,52.983081 15.985624,48.766067 11.850793,44.738503 9.9374717,42.854293 7.2482171,38.299326"
           style="fill:none;fill-rule:evenodd;stroke:#17220c;stroke-width:6.26504;stroke-linecap:round;stroke-linejoin:round;stroke-dasharray:none;stroke-opacity:1" />
        <path
           style="fill:none;stroke:#17220c;stroke-width:6.84349;stroke-linecap:round;stroke-linejoin:round;stroke-miterlimit:4;stroke-dasharray:none;stroke-opacity:1"
           d="M 58.866296,33.325301 C 57.397513,28.16992 55.928421,23.013453 54.836775,18.321546 53.745129,13.629638 53.031163,9.4027174 52.31699,5.1745749"
           id="path12"
           transform="matrix(0.91546253,0,0,0.91548322,2.7839188,1.077169)" />
        <path
           id="path13"
           d="M 15.281075,48.077557 C 24.769302,30.79754 25.83086,21.903029 52.026969,13.37239"
           style="fill:none;fill-rule:evenodd;stroke:#17220c;stroke-width:4.17669;stroke-linecap:round;stroke-linejoin:round;stroke-miterlimit:4;stroke-dasharray:none;stroke-opacity:1" />
        <path
           id="path14"
           d="M 25.336792,55.00487 C 29.739966,42.12411 34.434446,24.25623 53.627624,20.492401"
           style="fill:none;fill-rule:evenodd;stroke:#17220c;stroke-width:4.17669;stroke-linecap:round;stroke-linejoin:round;stroke-miterlimit:4;stroke-dasharray:none;stroke-opacity:1" />
        <path
           id="path15"
           d="M 35.921146,58.570453 C 38.607808,45.609681 40.657048,30.067126 55.088119,25.97025"
           style="fill:none;fill-rule:evenodd;stroke:#17220c;stroke-width:4.17669;stroke-linecap:round;stroke-linejoin:round;stroke-miterlimit:4;stroke-dasharray:none;stroke-opacity:1" />
        <path
           id="path76"
           d="M 7.2482171,38.299326 C 16.736444,21.019309 24.482053,14.345044 50.678164,5.8144056"
           style="fill:none;fill-rule:evenodd;stroke:#72d016;stroke-width:2.08835;stroke-linecap:round;stroke-linejoin:round;stroke-dasharray:none;stroke-opacity:1" />
        <path
           id="path76-1"
           d="M 56.673807,31.585923 C 51.042383,33.93817 46.783543,47.453141 47.022707,58.338067 43.476,58.783558 35.900341,59.194646 30.697665,57.416942 24.989544,55.680982 20.413021,52.983081 15.985624,48.766067 11.850793,44.738503 9.9374717,42.854293 7.2482171,38.299326"
           style="fill:none;fill-rule:evenodd;stroke:#72d016;stroke-width:2.08835;stroke-linecap:round;stroke-linejoin:round;stroke-dasharray:none;stroke-opacity:1" />
        <path
           style="fill:none;stroke:#72d016;stroke-width:2.28117;stroke-linecap:round;stroke-linejoin:round;stroke-miterlimit:4;stroke-dasharray:none;stroke-opacity:1"
           d="M 58.866296,33.325301 C 57.397513,28.16992 55.928421,23.013453 54.836775,18.321546 53.745129,13.629638 53.031163,9.4027174 52.31699,5.1745749"
           id="path874"
           transform="matrix(0.91546253,0,0,0.91548322,2.7839188,1.077169)" />
        <path
           id="path76-4"
           d="M 15.281075,48.077557 C 24.769302,30.79754 25.83086,21.903029 52.026969,13.37239"
           style="fill:none;fill-rule:evenodd;stroke:#72d016;stroke-width:1.39223;stroke-linecap:round;stroke-linejoin:round;stroke-miterlimit:4;stroke-dasharray:none;stroke-opacity:1" />
        <path
           id="path76-4-0"
           d="M 25.336792,55.00487 C 29.739966,42.12411 34.434446,24.25623 53.627624,20.492401"
           style="fill:none;fill-rule:evenodd;stroke:#72d016;stroke-width:1.39223;stroke-linecap:round;stroke-linejoin:round;stroke-miterlimit:4;stroke-dasharray:none;stroke-opacity:1" />
        <path
           id="path76-4-0-8"
           d="M 35.921146,58.570453 C 38.607808,45.609681 40.657048,30.067126 55.088119,25.97025"
           style="fill:none;fill-rule:evenodd;stroke:#72d016;stroke-width:1.39223;stroke-linecap:round;stroke-linejoin:round;stroke-miterlimit:4;stroke-dasharray:none;stroke-opacity:1" />
        <ellipse
           cy="5.9958496"
           cx="50.708813"
           id="circle44"
           style="fill:#ff0000;fill-opacity:1;stroke:#230b0b;stroke-width:2.08835;stroke-linejoin:round;stroke-miterlimit:4;stroke-dasharray:none;stroke-opacity:1"
           rx="3"
           ry="3.0000713" />
        <ellipse
           cy="31.585922"
           cx="56.673805"
           id="circle46"
           style="fill:#ef2929;fill-opacity:1;stroke:#230b0b;stroke-width:2.08835;stroke-linejoin:round;stroke-miterlimit:4;stroke-dasharray:none;stroke-opacity:1"
           rx="3"
           ry="3.0000713" />
        <ellipse
           cy="58.338818"
           cx="47.022697"
           id="circle42"
           style="fill:#ff0000;fill-opacity:1;stroke:#230b0b;stroke-width:2.08835;stroke-linejoin:round;stroke-miterlimit:4;stroke-dasharray:none;stroke-opacity:1"
           rx="3"
           ry="3.0000713" />
        <ellipse
           cy="38.299858"
           cx="7.2481203"
           id="circle40"
           style="fill:#ff0000;fill-opacity:1;stroke:#230b0b;stroke-width:2.08835;stroke-linejoin:round;stroke-miterlimit:4;stroke-dasharray:none;stroke-opacity:1"
           rx="3"
           ry="3.0000713" />
      </g>
      <path
         id="path4088"
         d="m 35.984632,44.406439 6.73744,6.737436 13.474879,-13.474873 5.05308,5.053078 -18.527959,18.527951 -11.79052,-11.790515 z"
         style="fill:url(#linearGradient2999);fill-opacity:1;stroke:#172a04;stroke-width:1.5;stroke-linecap:butt;stroke-linejoin:round;stroke-dasharray:none;stroke-opacity:1" />
      <path
         id="path3004"
         d="m 32.442952,49.463838 3.539798,-3.547804 6.739323,6.69442 13.47064,-13.457292 3.547804,3.571353 -17.018444,17.041993 z"
         style="fill:none;stroke:#8ae234;stroke-width:1.5;stroke-linecap:butt;stroke-linejoin:miter;stroke-dasharray:none;stroke-opacity:1" />
      <g
         id="g39"
         transform="matrix(-0.77924824,0,0,0.77924824,70.361891,-4.3618884)"
         style="stroke-width:1.28329;stroke-dasharray:none">
        <path
           id="path3969"
           d="m 49.229359,39.580916 2.756697,12.405135 -12.405138,-2.756697 -1.378346,-2.756696 8.27009,-8.270091 z"
           style="fill:#ffffff;stroke:#0b1521;stroke-width:1.28329;stroke-linecap:butt;stroke-linejoin:round;stroke-dasharray:none;stroke-opacity:1" />
        <path
           id="path3843"
           d="m 21.662393,12.013945 -2.756697,2.756697 27.566966,27.566971 c 0,-2.067523 0.689177,-2.756697 2.756697,-2.756697 z"
           style="fill:#729fcf;stroke:none;stroke-width:1.28329;stroke-dasharray:none" />
        <path
           id="path3843-7"
           d="m 18.905696,14.770637 -4.135049,4.135054 27.566967,27.566967 c 0,-2.067523 2.067528,-4.135045 4.135048,-4.135045 z"
           style="fill:url(#linearGradient3797);fill-opacity:1;stroke:none;stroke-width:1.28329;stroke-dasharray:none" />
        <path
           id="path3843-5"
           d="m 14.770647,18.905691 -2.756696,2.756696 27.566967,27.566967 c 0,-2.067522 0.689175,-2.756696 2.756696,-2.756696 z"
           style="fill:url(#linearGradient3805);fill-opacity:1;stroke:none;stroke-width:1.28329;stroke-dasharray:none" />
        <path
           id="path3843-5-6"
           d="m 21.662393,12.013947 -2.756697,2.756697 27.566966,27.566969 c 0,-2.067523 0.689177,-2.756697 2.756697,-2.756697 z"
           style="fill:none;stroke:#0b1521;stroke-width:1.28329;stroke-linecap:butt;stroke-linejoin:round;stroke-dasharray:none;stroke-opacity:1" />
        <path
           id="path3843-5-6-2"
           d="m 18.905696,14.770644 -4.135049,4.135047 27.566967,27.566967 c 0,-2.067523 2.067528,-4.135045 4.135048,-4.135045 z"
           style="fill:none;stroke:#0b1521;stroke-width:1.28329;stroke-linecap:butt;stroke-linejoin:round;stroke-dasharray:none;stroke-opacity:1" />
        <path
           style="fill:none;stroke:#3465a4;stroke-width:1.28329;stroke-linecap:butt;stroke-linejoin:miter;stroke-dasharray:none;stroke-opacity:1"
           d="M 13.392299,20.973214 40.270092,47.958711"
           id="path3807" />
        <path
           id="path3843-5-6-9"
           d="m 14.770647,18.905691 -2.756696,2.756696 27.566967,27.566967 c 0,-2.067522 0.689175,-2.756696 2.756696,-2.756696 z"
           style="fill:none;stroke:#0b1521;stroke-width:1.28329;stroke-linecap:butt;stroke-linejoin:round;stroke-dasharray:none;stroke-opacity:1" />
        <path
           id="path3971"
           d="m 49.229359,47.161832 c -0.689176,0 -2.460757,1.73412 -2.756697,3.445871 l 5.513394,1.378348 -2.067521,-4.824219 h -0.689176"
           style="fill:#0b1521;stroke:#0b1521;stroke-width:1.28329;stroke-linecap:butt;stroke-linejoin:round;stroke-dasharray:none;stroke-opacity:1" />
      </g>
    </g>
  </g>
</svg>
